<?xml version="1.0" standalone="no"?>
<!DOCTYPE svg PUBLIC "-//W3C//DTD SVG 20010904//EN"
 "http://www.w3.org/TR/2001/REC-SVG-20010904/DTD/svg10.dtd">
<svg version="1.0" xmlns="http://www.w3.org/2000/svg"
 width="356.000000pt" height="356.000000pt" viewBox="0 0 356.000000 356.000000"
 preserveAspectRatio="xMidYMid meet">
<metadata>
Created by potrace 1.14, written by Peter Selinger 2001-2017
</metadata>
<g transform="translate(0.000000,356.000000) scale(0.100000,-0.100000)"
fill="#000000" stroke="none">
<path d="M399 2803 c-6 -16 -48 -136 -94 -268 -46 -132 -87 -248 -90 -258 -6
-15 1 -17 62 -17 l70 0 18 65 17 65 99 0 98 0 19 -62 20 -63 66 -3 c36 -2 66
0 66 5 0 4 -44 132 -97 285 l-97 278 -73 0 c-71 0 -74 -1 -84 -27z m88 -311
c-33 -2 -61 -1 -64 1 -4 5 44 173 55 192 4 6 20 -35 37 -90 l31 -100 -59 -3z"/>
<path d="M1130 2740 c0 -49 -1 -50 -30 -50 -29 0 -30 -1 -30 -50 0 -49 1 -50
30 -50 l30 0 0 -134 c0 -119 2 -136 21 -159 24 -32 79 -50 134 -45 l40 3 0 45
c0 40 -3 45 -25 48 -46 7 -50 18 -50 133 l0 109 41 0 40 0 -3 48 c-3 47 -3 47
-40 50 l-38 3 0 50 0 49 -60 0 -60 0 0 -50z"/>
<path d="M797 2683 c-4 -3 -7 -100 -7 -215 l0 -208 65 0 65 0 0 139 c0 166 8
184 81 186 l44 1 3 52 3 52 -44 0 c-32 0 -49 -6 -63 -21 l-18 -20 -8 20 c-6
18 -16 21 -61 21 -30 0 -57 -3 -60 -7z"/>
<path d="M250 1825 l0 -285 55 0 55 0 0 183 1 182 72 -180 73 -180 44 0 44 0
73 180 72 180 1 -182 0 -183 55 0 55 0 0 285 0 285 -73 0 -72 0 -59 -152 c-33
-84 -68 -173 -78 -198 l-19 -44 -77 194 -78 195 -72 3 -72 3 0 -286z"/>
<path d="M1847 2063 c-4 -3 -7 -26 -7 -50 0 -39 -2 -43 -25 -43 -23 0 -25 -3
-25 -50 0 -46 2 -50 24 -50 23 0 23 -1 28 -132 6 -179 23 -203 142 -203 l61 0
0 45 c0 43 -2 45 -30 48 -16 2 -33 9 -37 15 -4 7 -8 60 -8 119 l0 107 38 3
c37 3 37 3 37 48 0 45 0 45 -37 48 l-38 3 0 50 0 49 -58 0 c-32 0 -62 -3 -65
-7z"/>
<path d="M2227 1969 c-78 -12 -123 -52 -133 -120 -9 -67 45 -119 144 -140 31
-6 66 -16 79 -22 28 -13 30 -43 4 -57 -36 -19 -72 -11 -102 21 -25 27 -33 30
-81 27 -50 -3 -53 -4 -50 -28 6 -61 72 -109 160 -117 76 -7 138 11 179 52 29
29 33 40 33 84 0 66 -26 94 -106 116 -33 8 -76 20 -96 26 -30 8 -38 15 -38 33
0 44 77 51 108 11 17 -21 28 -25 71 -25 45 0 51 2 51 21 0 32 -35 84 -67 99
-41 19 -102 27 -156 19z"/>
<path d="M1024 1956 c-101 -44 -141 -199 -83 -322 65 -138 294 -139 365 -1 20
38 11 47 -45 47 -38 0 -52 -5 -71 -25 -34 -36 -100 -35 -129 1 -12 15 -21 35
-21 45 0 18 10 19 140 19 l140 0 0 50 c0 73 -33 136 -89 171 -38 25 -55 29
-110 29 -37 -1 -80 -7 -97 -14z m151 -101 c45 -44 35 -55 -55 -55 -65 0 -80 3
-80 15 0 27 47 65 80 65 19 0 40 -9 55 -25z"/>
<path d="M1457 1949 c-74 -39 -113 -141 -96 -250 13 -82 61 -139 135 -159 114
-32 247 26 256 111 3 22 -1 24 -45 27 -41 3 -52 -1 -72 -22 -47 -51 -155 -20
-155 44 0 19 6 20 140 20 l140 0 0 50 c0 126 -75 200 -202 200 -43 -1 -75 -7
-101 -21z m158 -94 c45 -44 35 -55 -55 -55 -44 0 -80 2 -80 5 0 2 5 15 11 29
22 48 86 60 124 21z"/>
<path d="M1511 1394 c-12 -15 -21 -32 -21 -39 0 -23 41 -65 64 -65 38 0 66 28
66 65 0 62 -71 87 -109 39z"/>
<path d="M2132 1400 c-42 -39 -14 -110 43 -110 14 0 34 9 45 20 39 39 11 110
-43 110 -13 0 -33 -9 -45 -20z"/>
<path d="M399 1363 c-6 -16 -48 -136 -94 -268 -46 -132 -87 -248 -90 -258 -6
-15 1 -17 62 -17 l70 0 18 65 17 65 99 0 98 0 19 -62 20 -63 66 -3 c36 -2 66
0 66 5 0 4 -44 132 -97 285 l-97 278 -73 0 c-71 0 -74 -1 -84 -27z m88 -311
c-33 -2 -61 -1 -64 1 -4 5 44 173 55 192 4 6 20 -35 37 -90 l31 -100 -59 -3z"/>
<path d="M1240 1301 c0 -47 -2 -50 -27 -53 -26 -3 -28 -6 -28 -48 0 -42 2 -45
28 -48 l27 -3 0 -120 c0 -144 12 -183 64 -204 20 -8 58 -15 86 -15 l50 0 0 49
c0 49 -1 50 -32 53 l-33 3 -3 118 -3 117 36 0 35 0 0 50 0 50 -34 0 c-34 0
-35 1 -38 48 l-3 47 -62 3 -63 3 0 -50z"/>
<path d="M2429 1249 c-80 -12 -129 -60 -129 -128 0 -73 34 -103 154 -135 62
-16 82 -25 84 -40 5 -25 -23 -46 -61 -46 -20 0 -37 10 -55 30 -23 26 -33 30
-79 30 -47 0 -53 -2 -53 -21 0 -32 31 -78 70 -102 49 -31 177 -31 235 -1 74
38 98 129 48 184 -22 24 -47 35 -117 53 -94 23 -120 43 -97 71 25 29 111 14
111 -19 0 -12 14 -15 61 -15 l61 0 -7 28 c-9 37 -30 68 -59 87 -32 21 -111 32
-167 24z"/>
<path d="M2922 1249 c-18 -4 -44 -17 -57 -29 l-23 -22 -4 24 c-3 21 -8 23 -63
23 l-60 0 0 -210 0 -210 63 -3 62 -3 0 144 c0 137 1 144 23 165 29 27 61 28
87 2 18 -18 20 -33 20 -165 l0 -145 60 0 60 0 0 143 c0 137 1 144 23 165 27
25 55 28 83 8 17 -13 19 -30 22 -165 l3 -151 60 0 60 0 -3 181 -3 181 -37 34
c-34 31 -43 34 -98 34 -52 0 -64 -4 -94 -31 l-36 -31 -22 27 c-27 30 -78 44
-126 34z"/>
<path d="M875 1236 c-125 -57 -156 -265 -55 -366 61 -61 164 -77 246 -39 51
25 94 80 94 121 0 27 -2 28 -55 28 -50 0 -56 -3 -65 -24 -20 -54 -85 -61 -125
-14 -25 29 -27 38 -23 99 5 86 24 111 82 107 33 -2 44 -9 61 -35 18 -30 24
-32 73 -33 49 0 52 1 52 25 0 38 -25 80 -67 112 -31 24 -47 28 -112 31 -49 1
-87 -3 -106 -12z"/>
<path d="M1500 1035 l0 -215 60 0 60 0 0 215 0 215 -60 0 -60 0 0 -215z"/>
<path d="M1657 1243 c-2 -4 28 -100 68 -213 l71 -205 70 -3 70 -3 71 210 c40
115 69 212 66 215 -4 3 -32 6 -63 6 l-58 0 -31 -117 c-58 -213 -49 -206 -87
-68 -18 66 -37 134 -41 150 -8 29 -11 30 -70 33 -34 2 -63 -1 -66 -5z"/>
<path d="M2117 1244 c-4 -4 -7 -101 -7 -216 l0 -208 65 0 65 0 -2 213 -3 212
-55 3 c-31 2 -59 0 -63 -4z"/>
</g>
</svg>
